<?xml version="1.0" standalone="no"?>
<!DOCTYPE svg PUBLIC "-//W3C//DTD SVG 20010904//EN"
 "http://www.w3.org/TR/2001/REC-SVG-20010904/DTD/svg10.dtd">
<svg version="1.0" xmlns="http://www.w3.org/2000/svg"
 width="512.000000pt" height="512.000000pt" viewBox="0 0 512.000000 512.000000"
 preserveAspectRatio="xMidYMid meet">

<g transform="translate(0.000000,512.000000) scale(0.100000,-0.100000)"
fill="#000000" stroke="none">
<path d="M2335 4748 c-747 -75 -1419 -545 -1751 -1223 -296 -607 -296 -1326 1
-1930 403 -822 1277 -1312 2181 -1224 766 74 1430 534 1770 1225 413 841 241
1858 -427 2523 -467 464 -1118 695 -1774 629z m413 -399 c774 -84 1408 -652
1570 -1409 68 -314 51 -637 -48 -940 -54 -164 -155 -363 -251 -494 l-51 -69
-140 140 -140 140 34 47 33 48 0 553 0 553 -30 43 c-55 78 -77 84 -337 87
l-227 3 -80 152 c-88 168 -105 191 -165 218 -37 17 -70 19 -356 19 -283 0
-319 -2 -355 -19 -38 -17 -69 -43 -100 -86 -13 -19 -30 -4 -341 306 l-327 327
69 50 c345 254 811 378 1242 331z m-1105 -1299 c-160 -6 -199 -20 -248 -89
l-30 -43 -3 -542 -2 -542 23 -44 c13 -25 43 -58 66 -75 l43 -30 832 -3 832 -2
263 -264 263 -263 -39 -30 c-174 -137 -449 -265 -683 -317 -413 -91 -802 -46
-1180 135 -757 364 -1157 1193 -973 2019 53 239 176 506 316 683 l30 39 314
-314 313 -313 -137 -5z m1032 -105 c211 -56 365 -251 365 -465 0 -121 17 -131
-296 181 -226 226 -280 285 -266 291 31 12 136 8 197 -7z m820 -130 c16 -15
25 -36 25 -55 0 -19 -9 -40 -25 -55 -22 -23 -32 -25 -115 -25 -83 0 -93 2
-115 25 -16 15 -25 36 -25 55 0 19 9 40 25 55 22 23 32 25 115 25 83 0 93 -2
115 -25z m-739 -772 c-42 -22 -138 -43 -196 -43 -222 0 -425 167 -471 387 -15
75 -6 183 21 257 l22 59 324 -324 c316 -316 323 -324 300 -336z"/>
</g>
</svg>
