<svg width="18" height="18" viewBox="0 0 18 18" fill="none" xmlns="http://www.w3.org/2000/svg">
<path d="M16.1156 7.64688C16.2703 7.64688 16.425 7.80156 16.425 7.95625V9.19375C16.425 9.38711 16.2703 9.50313 16.1156 9.50313H9.92812V15.6906C9.92812 15.884 9.77344 16 9.61875 16H8.38125C8.18789 16 8.07188 15.884 8.07188 15.6906V9.50313H1.88438C1.69102 9.50313 1.575 9.38711 1.575 9.19375V7.95625C1.575 7.80156 1.69102 7.64688 1.88438 7.64688H8.07188V1.45938C8.07188 1.30469 8.18789 1.15 8.38125 1.15H9.61875C9.77344 1.15 9.92812 1.30469 9.92812 1.45938V7.64688H16.1156Z" fill="#232B38"/>
</svg>
