<svg width="20" height="20" viewBox="0 0 20 20" fill="none" xmlns="http://www.w3.org/2000/svg">
    <path d="M1.42188 1.53125H2.37109C2.61719 1.53125 2.79297 1.74219 2.79297 1.98828L2.72266 5.43359C4.26953 3.07812 6.97656 1.53125 10 1.56641C14.8164 1.56641 18.7188 5.50391 18.7188 10.2852C18.6836 15.1016 14.7812 18.9688 10 18.9688C7.75 18.9688 5.67578 18.125 4.12891 16.7539C3.95312 16.5781 3.95312 16.2969 4.12891 16.1211L4.83203 15.418C4.97266 15.2773 5.21875 15.2773 5.39453 15.418C6.625 16.5078 8.20703 17.1406 10 17.1406C13.7969 17.1406 16.8906 14.082 16.8906 10.25C16.8906 6.45312 13.7969 3.35938 10 3.35938C7.1875 3.35938 4.79688 5.04688 3.70703 7.4375L8.13672 7.33203C8.38281 7.33203 8.59375 7.50781 8.59375 7.75391V8.70312C8.59375 8.94922 8.38281 9.125 8.17188 9.125H1.42188C1.17578 9.125 1 8.94922 1 8.70312V1.95312C1 1.74219 1.17578 1.53125 1.42188 1.53125Z" fill="#232B38"/>
</svg>
