<?xml version="1.0" standalone="no"?>
<!DOCTYPE svg PUBLIC "-//W3C//DTD SVG 20010904//EN"
 "http://www.w3.org/TR/2001/REC-SVG-20010904/DTD/svg10.dtd">
<svg version="1.0" xmlns="http://www.w3.org/2000/svg"
 width="512.000000pt" height="512.000000pt" viewBox="0 0 512.000000 512.000000"
 preserveAspectRatio="xMidYMid meet">

<g transform="translate(0.000000,512.000000) scale(0.100000,-0.100000)"
fill="#000000" stroke="none">
<path d="M3446 4811 c-4 -5 1 -41 9 -81 8 -39 15 -91 15 -115 0 -48 16 -67 35
-41 19 25 68 213 61 231 -4 11 -20 15 -60 15 -30 0 -57 -4 -60 -9z"/>
<path d="M2150 4771 c-80 -25 -149 -82 -186 -153 -23 -45 -30 -147 -13 -205
16 -60 86 -133 147 -152 23 -8 42 -17 42 -20 0 -3 -20 -14 -44 -24 -55 -23
-140 -111 -168 -174 -29 -65 -35 -165 -14 -235 55 -190 299 -265 514 -157 96
47 98 52 77 156 -9 49 -20 93 -24 100 -4 8 -27 -2 -74 -32 -73 -47 -157 -72
-202 -61 -42 11 -82 56 -90 104 -10 58 29 141 82 176 39 26 137 56 182 56 l24
0 -7 112 c-4 70 -11 115 -19 120 -7 5 -28 6 -47 4 -108 -16 -208 70 -179 153
21 59 79 68 133 20 l35 -31 31 48 c43 68 43 93 2 138 -51 55 -133 78 -202 57z"/>
<path d="M2687 4743 c-10 -17 -18 -191 -10 -196 5 -3 50 -11 98 -17 49 -6 91
-13 94 -15 2 -3 -15 -159 -38 -347 -23 -189 -43 -383 -44 -433 l-2 -90 84 -8
c46 -5 87 -5 92 0 8 8 49 321 84 643 8 80 18 162 21 183 l6 39 118 -7 119 -7
6 33 c15 89 22 165 16 172 -8 8 -269 32 -451 42 -63 3 -132 8 -152 10 -20 3
-39 2 -41 -2z"/>
<path d="M3724 4592 c-142 -51 -219 -189 -193 -351 13 -83 42 -147 124 -273
82 -125 96 -175 67 -240 -24 -55 -56 -79 -116 -85 -67 -8 -112 13 -194 89 -41
39 -81 68 -91 66 -17 -3 -100 -151 -101 -179 0 -9 27 -41 59 -73 99 -94 208
-132 356 -124 175 9 297 114 355 307 41 133 17 224 -100 380 -114 154 -132
210 -84 258 21 21 32 25 63 20 21 -2 50 -12 65 -22 22 -14 70 -80 111 -150 9
-15 17 -12 73 35 34 28 62 59 62 68 0 9 -18 45 -39 81 -88 148 -164 202 -291
208 -54 3 -89 -1 -126 -15z"/>
<path d="M1101 4516 c-52 -18 -96 -37 -98 -43 -2 -5 53 -254 122 -553 69 -299
125 -545 125 -547 0 -11 65 6 330 84 162 47 297 88 299 90 6 4 -30 158 -40
174 -6 10 -54 -1 -204 -45 -108 -32 -198 -56 -199 -54 -2 1 -49 201 -106 443
-106 455 -114 486 -127 484 -5 0 -50 -15 -102 -33z"/>
<path d="M4672 4039 c-51 -25 -117 -97 -132 -145 -13 -39 -10 -37 -47 -23 -41
15 -127 13 -161 -5 -51 -26 -82 -72 -82 -121 0 -24 6 -47 12 -51 15 -10 746
-24 806 -17 34 5 43 10 48 30 14 53 -26 97 -96 105 -21 3 -26 11 -35 58 -19
96 -61 145 -147 176 -57 20 -116 18 -166 -7z m188 -42 c51 -25 87 -72 95 -126
12 -80 17 -86 68 -92 49 -5 67 -19 67 -52 0 -17 -20 -18 -404 -15 -222 2 -408
7 -412 11 -18 18 31 82 80 106 45 23 53 23 100 12 89 -21 87 -21 124 44 45 80
58 94 117 121 57 27 93 25 165 -9z"/>
<path d="M488 3980 c-71 -21 -114 -63 -162 -157 -14 -28 -30 -54 -35 -57 -5
-3 -31 -1 -58 5 -64 15 -122 -1 -173 -47 -39 -36 -66 -93 -56 -119 5 -13 62
-15 389 -15 211 0 412 3 446 7 l63 6 -7 36 c-15 79 -46 113 -113 121 l-45 5
-22 68 c-39 123 -125 178 -227 147z m121 -44 c40 -21 52 -39 81 -124 l26 -77
49 -5 c28 -3 56 -9 64 -14 16 -10 51 -87 45 -98 -7 -11 -854 -10 -854 0 0 20
62 93 92 108 26 13 48 15 115 10 l83 -6 29 58 c38 75 74 118 120 142 43 23
111 25 150 6z"/>
<path d="M2508 3440 c-126 -22 -229 -79 -316 -174 -195 -215 -188 -545 17
-746 299 -294 810 -134 897 280 45 214 -49 447 -227 561 -101 64 -261 99 -371
79z m-40 -206 c24 -7 52 -51 52 -81 0 -11 -9 -2 -23 22 -70 124 -138 -37 -124
-295 6 -120 26 -196 60 -228 23 -22 24 -22 41 -3 26 29 46 105 53 205 l6 89
-56 -7 c-34 -5 -57 -4 -57 2 0 13 132 24 140 12 3 -6 3 -45 -2 -88 -20 -202
-44 -256 -112 -256 -53 0 -99 48 -121 127 -26 91 -30 216 -11 316 19 103 42
149 86 173 39 20 37 20 68 12z m373 -14 c36 -20 50 -66 56 -188 6 -137 -23
-338 -55 -382 -56 -74 -164 -33 -193 73 -16 61 -6 337 15 404 21 67 63 103
117 103 22 0 49 -5 60 -10z"/>
<path d="M2763 3191 c-36 -33 -48 -111 -48 -301 0 -159 2 -178 21 -210 30 -51
48 -49 72 7 31 75 45 188 40 330 -6 172 -32 223 -85 174z"/>
<path d="M4380 3320 c0 -5 15 -16 34 -24 42 -17 60 -43 87 -123 27 -81 44 -82
85 -5 26 49 39 62 92 90 34 18 62 40 62 48 0 18 -4 18 -67 -1 -39 -12 -62 -27
-93 -62 -33 -38 -43 -44 -50 -33 -6 8 -10 20 -10 27 0 7 -17 30 -38 53 -30 30
-47 40 -70 40 -18 0 -32 -4 -32 -10z"/>
<path d="M1189 3215 c-14 -8 -32 -28 -39 -45 -17 -41 9 -109 62 -162 106 -106
408 -187 551 -147 20 5 37 14 37 19 0 5 -25 14 -55 20 -102 21 -186 73 -310
190 -149 142 -183 159 -246 125z"/>
<path d="M3868 3203 c-18 -15 -71 -64 -118 -109 -123 -118 -211 -171 -332
-198 -53 -12 -53 -12 -28 -26 18 -11 55 -15 135 -14 171 2 335 57 432 147 80
73 97 155 42 201 -41 35 -87 34 -131 -1z"/>
<path d="M645 3127 c-24 -14 -49 -40 -63 -65 l-24 -43 -43 40 c-48 44 -102 60
-142 42 -35 -16 -24 -33 23 -35 49 -3 95 -33 125 -84 33 -55 49 -71 65 -65 8
3 14 17 14 32 0 59 21 100 70 142 28 23 50 46 50 51 0 15 -34 8 -75 -15z"/>
<path d="M1157 2823 c-25 -24 19 -92 69 -107 42 -13 116 -8 155 9 48 22 49 31
7 40 -18 4 -63 20 -100 36 -63 28 -117 37 -131 22z"/>
<path d="M3920 2815 c-14 -8 -55 -24 -92 -36 -38 -11 -68 -25 -68 -30 0 -18
74 -41 128 -40 61 0 109 23 131 63 13 22 13 29 2 42 -17 20 -68 20 -101 1z"/>
<path d="M4740 2749 c-25 -11 -59 -34 -77 -51 -26 -25 -37 -29 -60 -23 -146
37 -249 -6 -260 -109 -5 -42 -4 -46 21 -56 17 -6 145 -10 321 -10 l293 0 6 38
c7 42 -15 139 -40 178 -37 56 -123 70 -204 33z m143 -30 c13 -6 31 -23 39 -37
14 -24 38 -115 38 -142 0 -6 -117 -10 -300 -10 -200 0 -300 3 -300 10 0 29 32
80 59 94 38 20 118 20 164 1 46 -19 41 -20 84 19 77 69 156 92 216 65z"/>
<path d="M1595 2693 c-78 -18 -102 -29 -141 -65 -61 -56 -72 -132 -23 -158 25
-14 60 5 136 71 64 56 98 76 158 94 22 7 40 18 40 26 0 27 -105 47 -170 32z"/>
<path d="M3454 2690 c-17 -6 -37 -16 -43 -24 -10 -12 -3 -17 42 -30 53 -15
152 -80 192 -125 49 -56 108 -62 126 -13 23 59 -26 134 -111 171 -58 25 -160
35 -206 21z"/>
<path d="M415 2581 c-22 -10 -55 -34 -73 -53 -33 -35 -34 -35 -100 -31 -56 4
-74 1 -111 -19 -49 -25 -78 -60 -83 -98 l-3 -25 230 3 c127 1 299 5 384 9
l153 6 -5 49 c-12 100 -80 160 -156 137 -35 -11 -44 -9 -92 15 -62 31 -90 32
-144 7z m149 -45 c39 -21 49 -22 86 -13 52 14 88 -3 112 -53 33 -68 30 -74
-37 -81 -91 -10 -645 -10 -645 -1 0 12 30 37 67 56 21 10 57 16 102 16 66 0
74 2 108 33 86 76 129 85 207 43z"/>
<path d="M3945 2355 c-170 -37 -362 -173 -473 -337 -74 -108 -170 -340 -222
-537 -6 -23 -13 -41 -15 -39 -2 2 -20 145 -40 318 -21 173 -42 321 -48 328 -7
9 -42 12 -130 10 -119 -3 -121 -3 -127 -28 -7 -29 10 -205 80 -815 38 -340 52
-432 64 -441 9 -6 77 -15 152 -19 108 -5 139 -4 149 7 7 7 21 65 30 128 38
271 112 538 198 721 107 230 229 371 398 459 42 22 82 46 89 55 17 21 8 184
-11 196 -17 11 -20 11 -94 -6z"/>
<path d="M1320 2202 c-55 -5 -842 -110 -963 -128 -69 -11 -111 -22 -114 -30
-7 -18 15 -246 24 -255 5 -4 86 1 182 12 96 10 176 17 179 15 2 -3 10 -76 18
-163 32 -366 85 -921 90 -962 l7 -44 96 7 c136 10 171 16 180 35 8 14 -8 220
-75 963 -10 109 -15 200 -12 203 3 3 99 17 214 32 115 14 215 30 222 36 8 7
12 46 12 131 0 139 -6 153 -60 148z"/>
<path d="M4495 2151 l-90 -6 4 -700 c2 -385 6 -720 10 -745 l6 -45 165 3 c259
6 390 16 401 33 5 8 8 66 7 129 l-3 115 -157 3 -156 2 -4 601 c-3 658 0 621
-63 617 -16 -1 -70 -4 -120 -7z"/>
<path d="M2354 2109 c-211 -81 -295 -375 -279 -989 7 -272 10 -306 28 -313 18
-7 165 7 174 17 4 4 10 44 12 88 l3 81 67 -7 c36 -3 90 -6 120 -6 l53 0 -3
-77 -4 -78 102 -3 c90 -2 102 -1 107 15 13 47 28 493 23 703 -5 253 -17 335
-62 425 -29 60 -85 119 -136 146 -50 25 -138 24 -205 -2z m134 -261 c40 -44
44 -74 49 -375 l6 -293 -125 0 -124 0 3 93 c16 420 31 522 81 572 32 32 81 33
110 3z"/>
<path d="M1375 1725 c-101 -16 -161 -34 -179 -54 -12 -14 -9 -68 20 -400 52
-591 81 -888 89 -901 8 -13 46 -10 174 12 l64 11 -7 136 c-4 75 -10 146 -13
157 -4 19 3 25 48 42 l54 20 16 -53 c34 -109 143 -253 237 -314 27 -17 57 -31
68 -31 31 0 214 127 214 149 0 13 -22 30 -72 56 -91 48 -190 146 -238 237 -38
72 -37 75 15 146 44 61 67 139 73 248 7 153 -25 268 -108 391 -98 145 -223
185 -455 148z m225 -207 c131 -67 178 -338 77 -446 -25 -28 -187 -125 -194
-118 -8 8 -51 560 -44 568 23 24 110 21 161 -4z"/>
<path d="M4135 1684 c-22 -2 -124 -9 -227 -15 -113 -7 -195 -17 -204 -24 -16
-11 -16 -60 -6 -635 6 -342 13 -625 16 -628 6 -6 457 16 499 24 l28 6 -3 111
-3 112 -137 3 -138 3 0 94 c0 109 -13 98 134 115 50 5 94 14 99 19 13 13 -3
192 -19 198 -7 2 -57 0 -111 -5 -54 -6 -99 -9 -99 -8 -1 0 -5 89 -9 197 l-7
196 133 12 c73 7 136 14 141 17 4 3 8 47 8 98 0 94 -8 118 -39 114 -9 -1 -34
-3 -56 -4z"/>
<path d="M2536 571 c-112 -23 -118 -30 -114 -136 l3 -80 210 3 c217 4 383 -6
565 -35 172 -27 163 -29 177 47 7 36 12 81 13 101 0 45 -14 52 -170 86 -100
21 -146 25 -355 29 -204 3 -253 1 -329 -15z"/>
</g>
</svg>
